<?xml version="1.0" encoding="UTF-8" standalone="no"?>
<svg
   width="100mm"
   height="100mm"
   viewBox="0 0 1181.1011 1181.1042"
   version="1.2"
   id="svg41"
   sodipodi:docname="prunt_logo_colour.svg"
   inkscape:version="1.3.2 (091e20ef0f, 2023-11-25)"
   xmlns:inkscape="http://www.inkscape.org/namespaces/inkscape"
   xmlns:sodipodi="http://sodipodi.sourceforge.net/DTD/sodipodi-0.dtd"
   xmlns="http://www.w3.org/2000/svg"
   xmlns:svg="http://www.w3.org/2000/svg">
  <sodipodi:namedview
     id="namedview41"
     pagecolor="#ffffff"
     bordercolor="#000000"
     borderopacity="0.25"
     inkscape:showpageshadow="2"
     inkscape:pageopacity="0.0"
     inkscape:pagecheckerboard="0"
     inkscape:deskcolor="#d1d1d1"
     inkscape:document-units="mm"
     inkscape:zoom="2.061804"
     inkscape:cx="155.4464"
     inkscape:cy="295.1299"
     inkscape:window-width="2560"
     inkscape:window-height="1370"
     inkscape:window-x="0"
     inkscape:window-y="0"
     inkscape:window-maximized="1"
     inkscape:current-layer="layer1" />
  <defs
     id="defs1" />
  <g
     inkscape:groupmode="layer"
     id="layer1"
     inkscape:label="Layer 1">
    <path
       style="fill:#939393;fill-opacity:1;fill-rule:evenodd;stroke:#000000;stroke-width:0;stroke-dasharray:none"
       d="m 148.18637,16.879749 c -7.47727,6.066965 -14.66821,12.509937 -22.00896,18.751675 -27.544728,23.811713 -55.152232,47.553201 -82.497288,71.594466 -1.515296,1.5555 -3.542319,2.7501 -4.639485,4.6452 -0.218152,1.98627 2.329002,1.8358 3.611939,2.39954 62.113844,18.01631 124.263944,35.90826 186.397734,53.85618 1.84831,-0.0229 2.86603,-2.04299 4.32942,-2.96183 33.76724,-29.25373 67.65859,-58.36655 101.19427,-87.886545 1.42981,-1.380778 3.10168,-2.55857 4.32587,-4.128275 0.62174,-1.871623 -1.81831,-2.101529 -3.03748,-2.487581 C 273.6106,52.633357 211.34586,34.646412 149.03941,16.807282 c -0.28435,0.02416 -0.56869,0.04831 -0.85304,0.07247 z"
       id="path47"
       transform="matrix(3.1250048,0,0,3.1250048,-0.00155,0)" />
    <path
       style="fill:#565656;fill-opacity:1;fill-rule:evenodd;stroke:#000000;stroke-width:0;stroke-dasharray:none"
       d="m 339.31574,74.085134 c -19.85049,17.012905 -39.55731,34.213116 -59.35158,51.299456 -16.52053,14.30061 -33.04106,28.60123 -49.5616,42.90184 -0.95157,1.73601 -0.21998,3.91126 -0.45009,5.83294 0.0326,58.53833 -0.10335,117.07701 0.0651,175.61511 0.14514,2.91185 -0.18594,5.89974 0.36979,8.76718 0.72191,1.50206 2.46514,0.56097 3.19721,-0.40765 35.75041,-30.8686 71.42834,-61.82115 107.13879,-92.73599 0.95067,-1.73643 0.21929,-3.91123 0.44902,-5.83294 0,-61.42161 0,-122.84322 0,-184.264834 -0.12129,-0.953757 -0.93989,-1.471678 -1.85669,-1.175112 z"
       id="path48"
       transform="matrix(3.1250048,0,0,3.1250048,-0.00155,0)" />
    <path
       style="fill:#6f6f6f;fill-opacity:1;fill-rule:evenodd;stroke:#000000;stroke-width:0;stroke-dasharray:none"
       d="m 38.176709,113.6302 c -1.701822,0.77045 -0.844521,2.97796 -1.112721,4.42655 -0.282783,40.11946 -0.120663,80.24099 -0.169435,120.3613 0,22.13737 0,44.27473 0,66.41209 0.465676,1.89236 2.983422,1.54125 4.434606,2.25785 62.169611,17.94602 124.339141,35.89228 186.508621,53.83873 2.10739,0.23647 1.64765,-2.3194 1.66216,-3.67312 0.0216,-62.5108 0.1262,-125.02177 0.0591,-187.5325 -0.46744,-1.82828 -2.86074,-1.52695 -4.28005,-2.20892 -62.12827,-17.99274 -124.28993,-35.88179 -186.417351,-53.87014 -0.22824,-0.003 -0.456927,-0.0108 -0.68489,-0.0118 z m 43.206343,30.61971 c 12.218465,3.08349 24.280748,6.82756 36.423898,10.25918 11.59605,3.51927 23.41656,6.26077 34.25995,11.81581 12.86634,6.13293 24.49293,15.69048 31.35674,28.37906 5.50086,10.03416 7.55542,21.8314 7.08573,33.13287 -0.43849,9.02553 -2.42072,18.60658 -8.61386,25.57594 -3.64346,3.72156 -7.61799,7.09639 -11.74765,10.24912 -8.17646,5.62834 -18.52093,6.32371 -28.10561,5.58049 -8.56871,-0.61673 -16.84465,-3.1049 -25.10743,-5.34935 -2.02087,0.004 -1.47347,2.42701 -1.5976,3.74369 -0.22934,14.64417 0.004,29.31809 -0.26666,43.94191 -2.21342,1.89695 -4.2784,4.0794 -6.74234,5.62027 -11.181009,-2.93924 -22.292405,-6.22718 -33.306689,-9.66993 -0.383577,-16.45366 -0.189512,-32.957 -0.276481,-49.43381 -0.0032,-36.02019 -0.141622,-72.09339 0.08844,-108.08099 2.079145,-2.02524 4.255079,-4.00564 6.54956,-5.76426 z"
       id="path49"
       transform="matrix(3.1250048,0,0,3.1250048,-0.00155,0)" />
    <path
       style="fill:#6f6f6f;fill-opacity:1;fill-rule:evenodd;stroke:#000000;stroke-width:0;stroke-dasharray:none"
       d="m 115.95201,189.85905 c -1.2599,1.28065 -0.41449,3.30921 -0.67872,4.91927 -0.0279,10.7191 0.0441,21.43813 0.072,32.15717 0.47035,1.88555 2.97821,1.5433 4.42621,2.26477 7.07079,2.00161 14.23359,4.47654 21.69461,3.99344 2.2322,-0.20447 5.1326,0.0507 6.61513,-1.96226 2.16175,-4.76389 1.92732,-10.2449 1.23858,-15.31767 -1.07542,-7.81919 -6.07763,-14.74153 -12.79257,-18.76058 -6.00703,-3.79112 -12.9875,-5.5248 -19.73734,-7.46891 -0.2793,0.0583 -0.55859,0.11651 -0.83788,0.17477 z"
       id="path50"
       transform="matrix(3.1250048,0,0,3.1250048,-0.00155,0)" />
    <path
       style="fill:#1b7700;fill-opacity:1;fill-rule:evenodd;stroke:#000000;stroke-width:0;stroke-dasharray:none"
       d="m 76.13791,150.83405 c -1.495445,1.09504 -0.533446,3.25884 -0.809026,4.83922 -0.0142,50.2328 -0.141875,100.46602 -0.03738,150.69859 0.505035,1.79236 2.830502,1.52129 4.250447,2.19358 9.009891,2.58035 18.009099,5.32683 27.042429,7.74501 2.02112,-0.0133 1.29552,-2.57101 1.43026,-3.8977 0.14366,-16.96368 0.003,-33.9471 0.36095,-50.8941 -0.058,-1.16852 1.6018,0.1623 2.3147,0.0796 12.65793,3.54816 25.43862,7.87275 38.75645,7.50632 9.2393,-0.13628 18.99413,-2.96214 25.30447,-10.06069 6.83249,-7.53444 8.69907,-18.11385 8.75748,-27.96398 0.17752,-11.37624 -2.43764,-22.88868 -8.34655,-32.67813 -4.45707,-7.56508 -10.86655,-13.85277 -17.96316,-18.94988 -10.37943,-7.34773 -22.3492,-12.08838 -34.55201,-15.44091 -15.2032,-4.45864 -30.436409,-8.81449 -45.654134,-13.22333 -0.284977,0.0155 -0.569953,0.0309 -0.854929,0.0464 z m 36.4337,37.17874 c 8.70944,2.71037 17.99936,4.43306 25.62449,9.74023 6.1264,4.00623 10.48367,10.59756 11.50526,17.87339 0.71697,5.58766 1.02657,11.60601 -1.72718,16.74131 -2.55062,4.71213 -8.03437,7.20119 -13.26817,6.89791 -3.16246,0.1163 -6.31901,0.11909 -9.41041,-0.77464 -5.71543,-1.33412 -11.47814,-2.63792 -16.97022,-4.73455 -0.38698,-10.04432 -0.11559,-20.13995 -0.2013,-30.21095 0,-5.47344 0,-10.94688 0,-16.42031 0.79773,-0.75887 2.12284,0.53889 3.10377,0.5031 0.44792,0.12817 0.89584,0.25634 1.34376,0.38451 z"
       id="path51"
       transform="matrix(3.1250048,0,0,3.1250048,-0.00155,0)" />
    <path
       style="fill:#1b7700;fill-opacity:1;fill-rule:evenodd;stroke:#000000;stroke-width:0;stroke-dasharray:none"
       d="m 109.40109,187.87458 c -1.28074,0.83666 -0.60345,2.55678 -0.80245,3.82033 -0.0833,12.91269 -0.12127,25.82771 0.0285,38.73963 0.11307,1.33824 1.86401,1.55988 2.60418,0.58985 1.15621,-1.08067 2.59845,-1.93183 3.45582,-3.27455 0.10633,-12.34478 0.015,-24.70274 0.0455,-37.05258 0.24162,-1.15485 -0.62791,-2.11805 -1.76871,-2.18745 -1.17543,-0.22847 -2.34901,-0.94188 -3.56284,-0.63523 z"
       id="path52"
       transform="matrix(3.1250048,0,0,3.1250048,-0.00155,0)" />
    <path
       style="fill:#1b7700;fill-opacity:1;fill-rule:evenodd;stroke:#000000;stroke-width:0;stroke-dasharray:none"
       d="m 115.50295,228.47025 c -1.67161,0.46043 -2.86742,1.90823 -4.14426,3.0089 -0.92408,0.6464 -1.38729,2.23571 -0.15249,2.82752 5.52262,1.69319 11.07743,3.42802 16.79261,4.36386 3.59078,0.48567 7.28039,0.49046 10.8576,-0.10386 1.924,-0.59807 3.9559,-1.25867 5.50135,-2.59528 0.89074,-0.97028 -0.13226,-2.4921 -1.35508,-2.31696 -4.1073,0.007 -8.2561,-0.0315 -12.2811,-1.07688 -5.07485,-1.15982 -10.02905,-2.8031 -15.06938,-4.10294 l -0.12346,-0.006 z"
       id="path53"
       transform="matrix(3.1250048,0,0,3.1250048,-0.00155,0)" />
    <path
       style="fill:#1b7700;fill-opacity:1;fill-rule:evenodd;stroke:#000000;stroke-width:0;stroke-dasharray:none"
       d="m 81.803233,144.73722 c -1.563962,0.68762 -2.749141,2.04805 -4.082145,3.09617 -1.068591,0.57233 -1.203105,2.34106 0.08792,2.71063 16.831959,5.07136 33.799212,9.68595 50.623282,14.78328 13.32139,4.11749 26.32905,10.33292 36.64327,20.02614 8.02434,7.43364 14.04349,17.16164 16.70654,27.80707 1.44477,5.66201 2.22589,11.55686 2.08787,17.38824 0.0991,4.50095 -0.31173,9.01186 -1.31388,13.42382 -0.40631,2.15765 -1.14662,4.18085 -1.8102,6.26905 -0.2372,1.44311 1.92132,2.01954 2.57314,0.76354 5.36118,-7.53387 6.8361,-17.05434 6.83373,-26.1048 0.0373,-11.48987 -2.55717,-23.18399 -8.76355,-32.96134 -7.35339,-11.8551 -18.9779,-20.47756 -31.50659,-26.26282 -6.91174,-3.28322 -14.22591,-5.57931 -21.57325,-7.65788 -15.31075,-4.46812 -30.605089,-9.00077 -45.970939,-13.2744 -0.1755,-0.0283 -0.357781,0.002 -0.535198,-0.007 z"
       id="path54"
       transform="matrix(3.1250048,0,0,3.1250048,-0.00155,0)" />
    <path
       style="fill:#1b7700;fill-opacity:1;fill-rule:evenodd;stroke:#000000;stroke-width:0;stroke-dasharray:none"
       d="m 109.4366,261.94624 c -1.29947,0.77145 -0.64292,2.46863 -0.83102,3.69446 -0.12228,16.09086 -0.0573,32.18247 -0.0743,48.27367 0.0499,1.32631 1.80245,1.6726 2.53612,0.65366 1.0928,-1.09593 2.59721,-1.88455 3.36814,-3.25061 0.45183,-2.8185 0.16845,-5.71347 0.26913,-8.56115 0.003,-12.88865 -0.0389,-25.77726 -0.0578,-38.66588 -0.2336,-1.60271 -2.20355,-1.45673 -3.38809,-1.95775 -0.60825,-0.18563 -1.18304,-0.37112 -1.82221,-0.1864 z"
       id="path55"
       transform="matrix(3.1250048,0,0,3.1250048,-0.00155,0)" />
  </g>
  <g
     fill="none"
     stroke="#000000"
     stroke-width="1"
     fill-rule="evenodd"
     stroke-linecap="square"
     stroke-linejoin="bevel"
     id="g41">
    <g
       fill="none"
       stroke="#000000"
       stroke-opacity="1"
       stroke-width="1"
       stroke-linecap="square"
       stroke-linejoin="bevel"
       font-family="Arial"
       font-size="12px"
       font-weight="400"
       font-style="normal"
       id="g2" />
    <g
       fill="#000000"
       fill-opacity="1"
       stroke="#000000"
       stroke-opacity="1"
       stroke-width="1"
       stroke-linecap="butt"
       stroke-linejoin="miter"
       stroke-miterlimit="2"
       font-family="Arial"
       font-size="12px"
       font-weight="400"
       font-style="normal"
       id="g3" />
    <g
       fill="#000000"
       fill-opacity="1"
       stroke="#000000"
       stroke-opacity="1"
       stroke-width="5"
       stroke-linecap="round"
       stroke-linejoin="bevel"
       font-family="Arial"
       font-size="12px"
       font-weight="400"
       font-style="normal"
       id="g39"
       transform="matrix(1.7468166,0,0,1.7468166,-2539.5352,-1560.7949)">
      <polyline
         fill="none"
         vector-effect="none"
         points="1659.51,1301.46 1679.18,1307.14 "
         id="polyline3" />
      <polyline
         fill="none"
         vector-effect="none"
         points="1587.94,1161.84 1599.75,1151.62 "
         id="polyline4" />
      <polyline
         fill="none"
         vector-effect="none"
         points="1647.7,1311.68 1659.51,1301.46 "
         id="polyline5" />
      <polyline
         fill="none"
         vector-effect="none"
         points="1762.57,1361.41 1774.38,1351.18 "
         id="polyline6" />
      <polyline
         fill="none"
         vector-effect="none"
         points="1659.51,1231.47 1659.51,1301.46 "
         id="polyline7" />
      <polyline
         fill="none"
         vector-effect="none"
         points="1647.7,1311.68 1667.37,1317.36 "
         id="polyline8" />
      <polyline
         fill="none"
         vector-effect="none"
         points="1519.36,1440.86 1864.9,1540.61 "
         id="polyline9" />
      <polyline
         fill="none"
         vector-effect="none"
         points="1519.36,1095.32 1864.9,1195.07 "
         id="polyline10" />
      <polyline
         fill="none"
         vector-effect="none"
         points="1519.36,1440.86 1519.36,1095.32 "
         id="polyline11" />
      <polyline
         fill="none"
         vector-effect="none"
         points="1864.9,1540.61 1864.9,1195.07 "
         id="polyline12" />
      <polyline
         fill="none"
         vector-effect="none"
         points="1647.7,1360.65 1647.7,1460.86 "
         id="polyline13" />
      <polyline
         fill="none"
         vector-effect="none"
         points="1659.51,1364.06 1659.51,1450.64 "
         id="polyline14" />
      <polyline
         fill="none"
         vector-effect="none"
         points="1718.86,922.553 1519.36,1095.32 "
         id="polyline15" />
      <polyline
         fill="none"
         vector-effect="none"
         points="1718.86,922.553 2064.4,1022.3 "
         id="polyline16" />
      <polyline
         fill="none"
         vector-effect="none"
         points="1674.83,1235.89 1647.7,1228.06 "
         id="polyline17" />
      <polyline
         fill="none"
         vector-effect="none"
         points="1599.75,1151.62 1689.73,1177.59 "
         id="polyline18" />
      <polyline
         fill="none"
         vector-effect="none"
         points="1647.7,1460.86 1587.94,1443.61 "
         id="polyline19" />
      <polyline
         fill="none"
         vector-effect="none"
         points="1647.7,1228.06 1647.7,1311.68 "
         id="polyline20" />
      <polyline
         fill="none"
         vector-effect="none"
         points="1587.94,1161.84 1677.92,1187.82 "
         id="polyline21" />
      <polyline
         fill="none"
         vector-effect="none"
         points="2064.4,1367.84 2064.4,1022.3 "
         id="polyline22" />
      <polyline
         fill="none"
         vector-effect="none"
         points="2064.4,1367.84 1864.9,1540.61 "
         id="polyline23" />
      <polyline
         fill="none"
         vector-effect="none"
         points="1673.29,1368.04 1647.7,1360.65 "
         id="polyline24" />
      <polyline
         fill="none"
         vector-effect="none"
         points="1647.7,1460.86 1659.51,1450.64 "
         id="polyline25" />
      <polyline
         fill="none"
         vector-effect="none"
         points="2064.4,1022.3 1864.9,1195.07 "
         id="polyline26" />
      <polyline
         fill="none"
         vector-effect="none"
         points="1587.94,1443.61 1587.94,1161.84 "
         id="polyline27" />
      <polyline
         fill="none"
         vector-effect="none"
         points="1679.18,1307.14 1682.31,1308 1685.34,1308.77 1688.28,1309.44 1691.13,1310.01 1693.89,1310.48 1696.55,1310.85 1699.13,1311.12 1701.61,1311.3 1704,1311.37 1706.3,1311.35 1708.5,1311.23 1710.62,1311.01 1712.64,1310.69 1714.57,1310.27 1716.41,1309.75 1718.16,1309.13 "
         id="polyline28" />
      <polyline
         fill="none"
         vector-effect="none"
         points="1667.37,1317.36 1670.76,1318.3 1674.03,1319.12 1677.2,1319.82 1680.26,1320.4 1683.21,1320.87 1686.06,1321.23 1688.79,1321.46 1691.42,1321.59 1693.94,1321.59 1696.36,1321.48 1698.66,1321.25 1700.86,1320.91 1702.95,1320.45 1704.93,1319.87 1706.8,1319.18 1708.57,1318.37 "
         id="polyline29" />
      <polyline
         fill="none"
         vector-effect="none"
         points="1782.57,1305.91 1782.46,1311.48 1782.13,1316.82 1781.57,1321.93 1780.79,1326.81 1779.8,1331.46 1778.57,1335.87 1777.13,1340.06 1775.46,1344.01 1773.58,1347.73 1771.47,1351.22 1769.13,1354.48 1766.58,1357.51 1763.8,1360.3 1760.8,1362.86 1757.58,1365.2 1754.14,1367.3 "
         id="polyline30" />
      <polyline
         fill="none"
         vector-effect="none"
         points="1722.26,1290.66 1722.21,1288.06 1722.08,1285.52 1721.86,1283.04 1721.54,1280.62 1721.14,1278.26 1720.65,1275.97 1720.06,1273.73 1719.39,1271.55 1718.63,1269.43 1717.78,1267.38 1716.84,1265.38 1715.81,1263.44 1714.69,1261.56 1713.48,1259.75 1712.18,1257.99 1710.79,1256.29 "
         id="polyline31" />
      <polyline
         fill="none"
         vector-effect="none"
         points="1794.38,1295.68 1794.3,1300.37 1794.07,1304.9 1793.68,1309.26 1793.13,1313.47 1792.43,1317.5 1791.57,1321.38 1790.55,1325.09 1789.38,1328.64 1788.05,1332.03 1786.57,1335.26 1784.93,1338.32 1783.13,1341.22 1781.18,1343.95 1779.07,1346.52 1776.8,1348.93 1774.38,1351.18 "
         id="polyline32" />
      <polyline
         fill="none"
         vector-effect="none"
         points="1754.14,1367.3 1750.49,1369.16 1746.66,1370.78 1742.64,1372.16 1738.43,1373.3 1734.03,1374.19 1729.45,1374.84 1724.67,1375.25 1719.71,1375.42 1714.57,1375.34 1709.23,1375.03 1703.71,1374.47 1698,1373.67 1692.11,1372.62 1686.02,1371.34 1679.75,1369.81 1673.29,1368.04 "
         id="polyline33" />
      <polyline
         fill="none"
         vector-effect="none"
         points="1710.79,1256.29 1709.3,1254.65 1707.72,1253.06 1706.03,1251.51 1704.24,1250.02 1702.35,1248.57 1700.35,1247.18 1698.26,1245.83 1696.06,1244.53 1693.77,1243.28 1691.37,1242.07 1688.87,1240.92 1686.26,1239.82 1683.56,1238.76 1680.75,1237.76 1677.84,1236.8 1674.83,1235.89 "
         id="polyline34" />
      <polyline
         fill="none"
         vector-effect="none"
         points="1767.71,1222.18 1770.94,1225.96 1773.96,1229.84 1776.77,1233.84 1779.38,1237.94 1781.77,1242.15 1783.96,1246.47 1785.94,1250.9 1787.71,1255.44 1789.28,1260.09 1790.63,1264.85 1791.78,1269.72 1792.71,1274.69 1793.44,1279.77 1793.96,1284.97 1794.28,1290.27 1794.38,1295.68 "
         id="polyline35" />
      <polyline
         fill="none"
         vector-effect="none"
         points="1677.92,1187.82 1684.24,1189.73 1690.36,1191.75 1696.29,1193.9 1702.03,1196.16 1707.58,1198.54 1712.94,1201.03 1718.1,1203.64 1723.07,1206.37 1727.85,1209.22 1732.43,1212.18 1736.82,1215.26 1741.02,1218.45 1745.03,1221.77 1748.85,1225.2 1752.47,1228.74 1755.9,1232.41 "
         id="polyline36" />
      <polyline
         fill="none"
         vector-effect="none"
         points="1708.57,1318.37 1710.23,1317.45 1711.78,1316.42 1713.22,1315.28 1714.56,1314.04 1715.79,1312.69 1716.91,1311.22 1717.93,1309.65 1718.84,1307.98 1719.64,1306.19 1720.33,1304.3 1720.92,1302.29 1721.4,1300.18 1721.78,1297.96 1722.04,1295.63 1722.2,1293.2 1722.26,1290.66 "
         id="polyline37" />
      <polyline
         fill="none"
         vector-effect="none"
         points="1689.73,1177.59 1696.04,1179.5 1702.17,1181.53 1708.1,1183.67 1713.84,1185.93 1719.39,1188.31 1724.74,1190.8 1729.91,1193.41 1734.88,1196.14 1739.65,1198.99 1744.24,1201.95 1748.63,1205.03 1752.83,1208.23 1756.84,1211.54 1760.66,1214.97 1764.28,1218.52 1767.71,1222.18 "
         id="polyline38" />
      <polyline
         fill="none"
         vector-effect="none"
         points="1755.9,1232.41 1759.13,1236.18 1762.15,1240.07 1764.96,1244.06 1767.57,1248.17 1769.96,1252.38 1772.15,1256.7 1774.13,1261.13 1775.9,1265.67 1777.47,1270.32 1778.82,1275.08 1779.97,1279.94 1780.9,1284.92 1781.63,1290 1782.15,1295.2 1782.47,1300.5 1782.57,1305.91 "
         id="polyline39" />
    </g>
    <g
       fill="none"
       stroke="#000000"
       stroke-opacity="1"
       stroke-width="1"
       stroke-linecap="square"
       stroke-linejoin="bevel"
       font-family="Arial"
       font-size="12px"
       font-weight="400"
       font-style="normal"
       id="g40" />
  </g>
</svg>
